# MagicaVoxel @ Ephtracy

# group
o 

# material
mtllib ChefLeg.mtl
usemtl palette

# normals
vn -1 0 0
vn 1 0 0
vn 0 0 1
vn 0 0 -1
vn 0 -1 0
vn 0 1 0

# texcoords
vt 0.958984 0.5
vt 0.970703 0.5
vt 0.990234 0.5

# verts
v -0.1 0.1 0.2
v -0.1 0.1 -0.1
v -0.1 0.2 0.2
v -0.1 0.2 -0.1
v 0 0 0.1
v 0 0 0
v 0 0.1 0.1
v 0 0.1 0
v 0.1 0 0.1
v 0.1 0 0
v 0.1 0.1 0.2
v 0.1 0.1 0.1
v 0.1 0.1 0
v 0.1 0.1 -0.1
v 0.1 0.2 0.2
v 0.1 0.2 0.1
v 0.1 0.2 0
v 0.1 0.2 -0.1
v -0.1 0.1 0.2
v -0.1 0.2 0.2
v 0.1 0.1 0.2
v 0.1 0.2 0.2
v 0 0 0.1
v 0 0.1 0.1
v 0.1 0 0.1
v 0.1 0.1 0.1
v 0 0 0
v 0 0.1 0
v 0.1 0 0
v 0.1 0.1 0
v -0.1 0.1 -0.1
v -0.1 0.2 -0.1
v 0.1 0.1 -0.1
v 0.1 0.2 -0.1
v 0 0 0.1
v 0.1 0 0.1
v 0 0 0
v 0.1 0 0
v -0.1 0.1 0.2
v 0.1 0.1 0.2
v 0 0.1 0.1
v 0.1 0.1 0.1
v 0 0.1 0
v 0.1 0.1 0
v -0.1 0.1 -0.1
v 0.1 0.1 -0.1
v -0.1 0.2 0.2
v 0.1 0.2 0.2
v 0 0.2 0.1
v 0.1 0.2 0.1
v 0 0.2 0
v 0.1 0.2 0
v -0.1 0.2 -0.1
v 0.1 0.2 -0.1

# faces
f 3/2/1 2/2/1 1/2/1
f 4/2/1 2/2/1 3/2/1
f 7/3/1 6/3/1 5/3/1
f 8/3/1 6/3/1 7/3/1
f 9/3/2 10/3/2 12/3/2
f 12/3/2 10/3/2 13/3/2
f 11/2/2 12/2/2 15/2/2
f 12/1/2 13/1/2 16/1/2
f 15/2/2 12/2/2 16/2/2
f 13/2/2 14/2/2 17/2/2
f 16/1/2 13/1/2 17/1/2
f 17/2/2 14/2/2 18/2/2
f 21/2/3 20/2/3 19/2/3
f 22/2/3 20/2/3 21/2/3
f 25/3/3 24/3/3 23/3/3
f 26/3/3 24/3/3 25/3/3
f 27/3/4 28/3/4 29/3/4
f 29/3/4 28/3/4 30/3/4
f 31/2/4 32/2/4 33/2/4
f 33/2/4 32/2/4 34/2/4
f 37/3/5 36/3/5 35/3/5
f 38/3/5 36/3/5 37/3/5
f 41/2/5 40/2/5 39/2/5
f 42/2/5 40/2/5 41/2/5
f 43/2/5 41/2/5 39/2/5
f 45/2/5 43/2/5 39/2/5
f 45/2/5 44/2/5 43/2/5
f 46/2/5 44/2/5 45/2/5
f 47/2/6 48/2/6 49/2/6
f 49/2/6 48/2/6 50/2/6
f 47/2/6 49/2/6 51/2/6
f 49/1/6 50/1/6 51/1/6
f 51/1/6 50/1/6 52/1/6
f 47/2/6 51/2/6 53/2/6
f 51/2/6 52/2/6 53/2/6
f 53/2/6 52/2/6 54/2/6
